<svg width="280" height="201" viewBox="0 0 280 201" fill="none" xmlns="http://www.w3.org/2000/svg">
<g clip-path="url(#clip0_1102_3010)">
<path d="M240.296 18.2909L58.5738 1.65699C54.85 1.31614 51.555 4.0585 51.2142 7.78222L39.0217 140.982C38.6809 144.706 41.4232 148.001 45.1469 148.342L226.869 164.976C230.593 165.317 233.888 162.574 234.228 158.851L246.421 25.6505C246.762 21.9268 244.019 18.6318 240.296 18.2909Z" fill="#F3F1E9" stroke="#190B34" stroke-width="2.84357" stroke-linecap="round" stroke-linejoin="round"/>
<path d="M225.666 29.4229L70.5498 15.2244C68.6879 15.0539 67.0404 16.4251 66.87 18.287L56.5127 131.438C56.3423 133.3 57.7134 134.948 59.5753 135.118L214.692 149.317C216.553 149.487 218.201 148.116 218.371 146.254L228.729 33.1027C228.899 31.2409 227.528 29.5934 225.666 29.4229Z" stroke="#190B34" stroke-width="1.42179" stroke-linecap="round" stroke-linejoin="round"/>
<path d="M223.005 37.8728L140.202 30.2933L136.172 74.318L218.975 81.8974L223.005 37.8728Z" stroke="#190B34" stroke-width="0.710893" stroke-linecap="round" stroke-linejoin="round"/>
<path d="M131.888 29.5294L75.2916 24.3489L71.2618 68.3735L127.858 73.5541L131.888 29.5294Z" stroke="#190B34" stroke-width="0.710893" stroke-linecap="round" stroke-linejoin="round"/>
<path d="M70.636 74.1686L126.655 79.2914" stroke="#190B34" stroke-width="0.710893" stroke-linecap="round" stroke-linejoin="round"/>
<path d="M70.0707 80.3532L126.09 85.4759" stroke="#190B34" stroke-width="0.710893" stroke-linecap="round" stroke-linejoin="round"/>
<path d="M69.457 87.0962L125.469 92.2189" stroke="#190B34" stroke-width="0.710893" stroke-linecap="round" stroke-linejoin="round"/>
<path d="M68.7676 94.5907L95.5603 97.0383" stroke="#190B34" stroke-width="0.710893" stroke-linecap="round" stroke-linejoin="round"/>
<path d="M279.311 165.709C279.311 165.709 271.678 160.973 267.734 158.842C261.557 155.512 248.546 138.834 245.589 134.214C242.631 129.595 233.537 114.896 231.427 111.683C229.297 108.435 226.442 105.884 223.215 103.781C221.892 102.919 220.237 102.864 218.658 102.795C211.039 102.478 203.414 102.161 195.795 101.796C194.989 101.754 192.686 101.706 192.686 101.706L182.523 115.516C182.523 115.516 170.933 109.173 166.389 109.201C161.384 109.125 156.964 113.53 157.599 117.653C158.295 122.128 162.149 125.238 165.479 127.665C170.381 131.236 176.401 132.718 176.401 132.718L165.052 131.332C165.052 131.332 169.065 150.431 172.974 150.086C176.028 149.817 178.827 149.431 181.206 147.956L180.668 148.68C180.979 149.624 181.447 150.493 181.53 151.534C181.854 155.395 184.667 157.808 187.067 160.338C190.052 163.482 192.789 166.826 195.713 170.012C196.588 170.963 197.257 170.998 198.257 170.453C200.077 169.46 201.414 168.067 202.214 166.137C202.676 165.02 203.014 163.834 203.821 162.883L202.442 160.518C202.745 160.883 203.042 161.249 203.352 161.607C205.544 164.131 208.095 166.337 210.874 168.205C216.631 172.066 221.795 174.583 229.434 177.175C231.875 178.003 234.095 178.665 236.357 179.016L235.977 179.092C240.914 184.415 246.878 190.834 250.346 194.571C252.408 196.791 255.91 199.935 257.716 200.231" fill="#F3F1E9"/>
<path d="M180.661 148.686C180.972 149.631 181.44 150.5 181.523 151.541C181.847 155.402 184.66 157.815 187.06 160.345C190.045 163.489 192.782 166.833 195.706 170.019C196.581 170.97 197.25 171.005 198.25 170.46C200.07 169.467 201.407 168.074 202.207 166.144C202.669 165.027 203.007 163.841 203.814 162.889" stroke="#190B34" stroke-width="1.42179" stroke-linecap="round" stroke-linejoin="round"/>
<path d="M164.948 131.822C167.093 136.786 168.672 149.121 172.967 150.093C177.262 151.065 183.433 146.328 184.784 144.226C186.136 142.123 186.584 139.434 187.391 138.924" stroke="#190B34" stroke-width="1.42179" stroke-linecap="round" stroke-linejoin="round"/>
<path d="M212.846 120.032C210.826 123.066 209.405 126.334 208.943 129.981" stroke="#190B34" stroke-width="1.42179" stroke-linecap="round" stroke-linejoin="round"/>
<path d="M279.311 165.709C279.311 165.709 271.678 160.973 267.734 158.842C261.557 155.512 248.547 138.834 245.589 134.214C242.631 129.595 233.537 114.896 231.427 111.683C229.297 108.435 226.442 105.884 223.215 103.781C221.892 102.919 220.237 102.864 218.658 102.795C211.039 102.478 203.414 102.161 195.795 101.796C194.989 101.754 192.686 101.706 192.686 101.706" stroke="#190B34" stroke-width="1.42179" stroke-linecap="round" stroke-linejoin="round"/>
<path d="M235.971 179.092C240.907 184.415 246.871 190.834 250.339 194.571C252.401 196.791 257.71 200.231 257.71 200.231" stroke="#190B34" stroke-width="1.42179" stroke-linecap="round" stroke-linejoin="round"/>
<path d="M191.936 96.5318L135.402 99.8806L136.355 115.972L192.889 112.623L191.936 96.5318Z" fill="#FF335A"/>
<path d="M145.057 114.882L135.343 115.454L134.398 99.479L192.341 96.0455L193.286 112.027L163.707 113.779" stroke="#190B34" stroke-width="2.84357" stroke-linecap="round" stroke-linejoin="round"/>
<path d="M253.8 175.631C242.507 180.719 237.067 179.775 229.428 177.175C221.788 174.583 216.624 172.059 210.867 168.205C208.088 166.344 205.537 164.13 203.345 161.607C198.698 156.271 195.078 150.217 191.583 144.081C190.107 141.502 188.542 138.868 186.067 137.152C183.123 135.104 179.758 133.897 176.318 132.787C172.512 131.56 168.775 129.898 165.472 127.651C162.066 125.341 158.288 122.114 157.592 117.64C156.951 113.517 161.377 109.111 166.383 109.187C172.664 109.283 188.142 118.322 190.631 119.936C192.458 121.115 201.794 126.81 204.641 128.395C207.916 130.222 211.432 132.008 215.5 131.167" fill="#F3F1E9"/>
<path d="M253.8 175.631C242.507 180.719 237.067 179.775 229.428 177.175C221.788 174.583 216.624 172.059 210.867 168.205C208.088 166.344 205.537 164.13 203.345 161.607C198.698 156.271 195.078 150.217 191.583 144.081C190.107 141.502 188.542 138.868 186.067 137.152C183.123 135.104 179.758 133.897 176.318 132.787C172.512 131.56 168.775 129.898 165.472 127.651C162.066 125.341 158.288 122.114 157.592 117.64C156.951 113.517 161.377 109.111 166.383 109.187C172.664 109.283 188.142 118.322 190.631 119.936C192.458 121.115 201.794 126.81 204.641 128.395C207.916 130.222 211.432 132.008 215.5 131.167" stroke="#190B34" stroke-width="1.42179" stroke-linecap="round" stroke-linejoin="round"/>
<path d="M120.188 119.86H83.3981C75.5159 119.86 69.1261 126.248 69.1261 134.128C69.1261 142.009 75.5159 148.397 83.3981 148.397H120.188C128.07 148.397 134.46 142.009 134.46 134.128C134.46 126.248 128.07 119.86 120.188 119.86Z" fill="#F3F1E9" stroke="#190B34" stroke-width="2.84357" stroke-linecap="round" stroke-linejoin="round"/>
<path d="M116.789 143.777C122.208 143.777 126.6 139.385 126.6 133.966C126.6 128.548 122.208 124.155 116.789 124.155C111.37 124.155 106.978 128.548 106.978 133.966C106.978 139.385 111.37 143.777 116.789 143.777Z" fill="#E22146"/>
<path d="M115.982 143.777C121.401 143.777 125.794 139.385 125.794 133.966C125.794 128.548 121.401 124.155 115.982 124.155C110.564 124.155 106.171 128.548 106.171 133.966C106.171 139.385 110.564 143.777 115.982 143.777Z" stroke="#190B34" stroke-width="1.42179" stroke-miterlimit="10"/>
<path d="M140.114 156.67H103.324C95.4415 156.67 89.0518 163.059 89.0518 170.939C89.0518 178.819 95.4415 185.208 103.324 185.208H140.114C147.996 185.208 154.386 178.819 154.386 170.939C154.386 163.059 147.996 156.67 140.114 156.67Z" fill="#F3F1E9" stroke="#190B34" stroke-width="1.42179" stroke-linecap="round" stroke-linejoin="round"/>
<path d="M105.282 180.588C110.7 180.588 115.093 176.195 115.093 170.777C115.093 165.358 110.7 160.966 105.282 160.966C99.8633 160.966 95.4707 165.358 95.4707 170.777C95.4707 176.195 99.8633 180.588 105.282 180.588Z" fill="#FFB9C6"/>
<path d="M3.64038 88.22C2.36486 88.8406 1.97186 90.2333 2.3166 91.9225C2.85438 94.5425 3.57832 97.128 4.19195 99.7342C4.97105 103.05 5.6881 106.388 6.48788 109.704C6.86019 111.255 7.41866 112.765 7.80476 114.316C8.59076 117.509 9.3216 120.715 10.0593 123.914C10.4937 125.803 10.9763 127.692 11.2935 129.602C11.8106 132.739 12.2312 135.897 12.6655 139.055C13.2102 143.04 12.4587 146.908 11.4521 150.727C10.0111 156.195 7.78408 161.359 5.02621 166.282C3.67485 168.688 2.10976 170.97 0.682556 173.335" fill="#F3F1E9"/>
<path d="M3.64038 88.22C2.36486 88.8406 1.97186 90.2333 2.3166 91.9225C2.85438 94.5425 3.57832 97.128 4.19195 99.7342C4.97105 103.05 5.6881 106.388 6.48788 109.704C6.86019 111.255 7.41866 112.765 7.80476 114.316C8.59076 117.509 9.3216 120.715 10.0593 123.914C10.4937 125.803 10.9763 127.692 11.2935 129.602C11.8106 132.739 12.2312 135.897 12.6655 139.055C13.2102 143.04 12.4587 146.908 11.4521 150.727C10.0111 156.195 7.78408 161.359 5.02621 166.282C3.67485 168.688 2.10976 170.97 0.682556 173.335" stroke="#190B34" stroke-width="1.42179" stroke-linecap="round" stroke-linejoin="round"/>
<path d="M41.7197 59.1727C40.3339 59.0624 38.9481 58.828 37.5691 58.8831C35.9144 58.9521 34.5423 59.7588 33.2875 60.8688C31.295 62.6338 29.2541 64.3575 27.1375 65.964C25.7034 67.0533 24.0555 67.86 22.5732 68.8942C20.7254 70.1835 18.9535 71.5762 17.1402 72.9138C16.4231 73.4447 15.6785 73.9411 14.9683 74.4789C12.7276 76.175 10.5557 77.9469 8.25292 79.5534C6.72919 80.6221 5.33647 81.7528 4.2609 83.2903C3.4749 84.4142 3.25427 85.6276 3.50938 86.91C3.8679 88.7095 4.98484 90.2333 5.48126 91.9914C5.67431 92.6671 5.86736 93.3359 6.06041 94.0047" fill="#F3F1E9"/>
<path d="M41.7197 59.1727C40.3339 59.0624 38.9481 58.828 37.5691 58.8831C35.9144 58.9521 34.5423 59.7588 33.2875 60.8688C31.295 62.6338 29.2541 64.3575 27.1375 65.964C25.7034 67.0533 24.0555 67.86 22.5732 68.8942C20.7254 70.1835 18.9535 71.5762 17.1402 72.9138C16.4231 73.4447 15.6785 73.9411 14.9683 74.4789C12.7276 76.175 10.5557 77.9469 8.25292 79.5534C6.72919 80.6221 5.33647 81.7528 4.2609 83.2903C3.4749 84.4142 3.25427 85.6276 3.50938 86.91C3.8679 88.7095 4.98484 90.2333 5.48126 91.9914C5.67431 92.6671 5.86736 93.3359 6.06041 94.0047" stroke="#190B34" stroke-width="1.42179" stroke-linecap="round" stroke-linejoin="round"/>
<path d="M32.3429 78.2641C32.6739 79.3879 33.0393 80.498 33.3289 81.6287C33.5564 82.5043 33.5081 83.4213 33.9563 84.2694C34.1217 84.5796 33.908 85.2415 33.6598 85.5931C32.7842 86.848 31.8741 88.0959 30.8675 89.2404C29.5988 90.6883 29.1783 92.3362 29.3162 94.2046C29.3851 95.1147 29.3299 96.0317 29.3299 96.9418" fill="#F3F1E9"/>
<path d="M32.3429 78.2641C32.6739 79.3879 33.0393 80.498 33.3289 81.6287C33.5564 82.5043 33.5081 83.4213 33.9563 84.2694C34.1217 84.5796 33.908 85.2415 33.6598 85.5931C32.7842 86.848 31.8741 88.0959 30.8675 89.2404C29.5988 90.6883 29.1783 92.3362 29.3162 94.2046C29.3851 95.1147 29.3299 96.0317 29.3299 96.9418" stroke="#190B34" stroke-width="1.42179" stroke-linecap="round" stroke-linejoin="round"/>
<path d="M23.1041 198.983C24.5933 195.198 30.4331 182.615 35.218 175.789C37.252 172.887 46.4701 156.126 47.5388 153.988C48.7937 151.479 49.5728 148.893 49.9658 146.149C50.0002 145.901 49.3521 142.019 50.1726 139.144C50.738 137.172 52.6616 128.002 52.8064 124.783C53.0684 119.088 51.2137 106.974 51.193 101.858C51.1861 99.5893 51.2688 91.9293 51.8687 88.9026C52.0893 87.7925 53.2752 81.153 53.7027 78.5192C54.7782 71.9348 59.2667 59.9311 59.7286 53.2019C59.8665 51.1887 59.6873 49.3271 58.6531 47.5276C57.3293 45.2317 55.5918 44.2112 53.1304 44.356C52.0548 44.4181 51.0965 44.8938 50.1864 45.4868C49.8072 45.735 46.546 47.7827 44.5534 53.1536C44.5534 53.1536 39.4583 72.9138 37.2726 79.2569C36.6521 81.1874 34.8181 83.4351 33.6667 85.4897" fill="#F3F1E9"/>
<path d="M23.1041 198.983C24.5933 195.198 30.4331 182.615 35.218 175.789C37.252 172.887 46.4701 156.126 47.5388 153.988C48.7937 151.479 49.5728 148.893 49.9658 146.149C50.0002 145.901 49.3521 142.019 50.1726 139.144C50.738 137.172 52.6616 128.002 52.8064 124.783C53.0684 119.088 51.2137 106.974 51.193 101.858C51.1861 99.5893 51.2688 91.9293 51.8687 88.9026C52.0893 87.7925 53.2752 81.153 53.7027 78.5192C54.7782 71.9348 59.2667 59.9311 59.7286 53.2019C59.8665 51.1887 59.6873 49.3271 58.6531 47.5276C57.3293 45.2317 55.5918 44.2112 53.1304 44.356C52.0548 44.4181 51.0965 44.8938 50.1864 45.4868C49.8072 45.735 46.546 47.7827 44.5534 53.1536C44.5534 53.1536 39.4583 72.9138 37.2726 79.2569C36.6521 81.1874 34.8181 83.4351 33.6667 85.4897" stroke="#190B34" stroke-width="1.42179" stroke-linecap="round" stroke-linejoin="round"/>
</g>
<defs>
<clipPath id="clip0_1102_3010">
<rect width="280" height="200.67" fill="white" transform="translate(0 0.250732)"/>
</clipPath>
</defs>
</svg>
